<svg xmlns="http://www.w3.org/2000/svg" viewBox="0 0 1026.24 1324.81"><defs><style>.cls-1{fill:#ededed;}.cls-2{fill:#d644d1;}</style></defs><title>191220_1556_upstairs_cluster</title><g id="Tables"><path class="cls-1" d="M696.17,405.49a3.79,3.79,0,0,0-3,1.75L647,490a3.76,3.76,0,0,1-3,1.75H546.21a2,2,0,0,0-2,2V531.9a2,2,0,0,0,2,2h121a3.79,3.79,0,0,0,3-1.75l69.91-124.91c.54-1,.08-1.75-1-1.75Z"/><path class="cls-1" d="M486.39,493.79a2,2,0,0,0-2-2H386.66a3.79,3.79,0,0,1-3-1.75l-46.16-82.8a3.76,3.76,0,0,0-3-1.75H291.6c-1.1,0-1.56.79-1,1.75l69.65,124.91a3.79,3.79,0,0,0,3,1.75H484.39a2,2,0,0,0,2-2Z"/><path class="cls-1" d="M172.21,930.24a3.79,3.79,0,0,0-3-1.75H126.29a1.08,1.08,0,0,0-1,1.75l117.68,211a4,4,0,0,1,0,3.5L155.85,1301.4a2,2,0,0,0,.77,2.72l32.34,18a2,2,0,0,0,2.72-.78l98.17-176.55a4,4,0,0,0,0-3.5Z"/><path class="cls-1" d="M49.47,964.8a9.23,9.23,0,0,1-1-3.75v-65.5a2,2,0,0,0-2-2H3.58a2,2,0,0,0-2,2v65.5a9.07,9.07,0,0,0,1,3.75l98.39,176.47a4,4,0,0,1,0,3.5L13.85,1301.4a2,2,0,0,0,.77,2.72l32.34,18a2,2,0,0,0,2.72-.78l98.17-176.55a4,4,0,0,0,0-3.5Z"/><path class="cls-1" d="M172.21,440.24a3.79,3.79,0,0,0-3-1.75H126.29a1.08,1.08,0,0,0-1,1.75l117.68,211a4,4,0,0,1,0,3.5L125.23,866.58a1.08,1.08,0,0,0,1,1.75h43a3.76,3.76,0,0,0,3-1.75L289.85,654.77a4,4,0,0,0,0-3.5Z"/><path class="cls-1" d="M49.47,474.8a9.23,9.23,0,0,1-1-3.75v-65.5a2,2,0,0,0-2-2H3.58a2,2,0,0,0-2,2v65.5a9.07,9.07,0,0,0,1,3.75l98.39,176.47a4,4,0,0,1,0,3.5L13.85,811.4a2,2,0,0,0,.77,2.72L47,832.1a2,2,0,0,0,2.72-.78l98.17-176.55a4,4,0,0,0,0-3.5Z"/><rect class="cls-1" x="424.74" y="331.79" width="135.05" height="42.11" rx="2"/><path class="cls-1" d="M622.46,131.77a4,4,0,0,1,0-3.5L680.4,24.36a2,2,0,0,0-.77-2.72l-32.31-18a2,2,0,0,0-2.72.78L575.55,128.27a4,4,0,0,0,0,3.5L693.19,343.58a3.79,3.79,0,0,0,3,1.75h43a1.08,1.08,0,0,0,1-1.75Z"/><path class="cls-1" d="M408.26,131.77a3.77,3.77,0,0,1,3-1.75h42.91a1.08,1.08,0,0,1,1,1.75L337.52,343.58a3.76,3.76,0,0,1-3,1.75h-43c-1.1,0-1.57-.79-1-1.75Z"/><path class="cls-1" d="M220.8,37.42a2,2,0,0,0-2.72-.78l-32.31,18a2,2,0,0,0-.77,2.72l57.94,103.91a4,4,0,0,1,0,3.5L125.23,376.58a1.08,1.08,0,0,0,1,1.75h43a3.76,3.76,0,0,0,3-1.75L289.85,164.77a4,4,0,0,0,0-3.5Z"/><path class="cls-1" d="M78.81,37.42a2,2,0,0,0-2.72-.78l-32.31,18A2,2,0,0,0,43,57.36l57.93,103.91a4,4,0,0,1,0,3.5L13.85,321.4a2,2,0,0,0,.77,2.72L47,342.1a2,2,0,0,0,2.72-.78l98.17-176.55a4,4,0,0,0,0-3.5Z"/><path class="cls-1" d="M923.46,164.77a4,4,0,0,1,0-3.5L981.39,57.36a2,2,0,0,0-.77-2.72l-32.31-18a2,2,0,0,0-2.72.78l-69,123.85a4,4,0,0,0,0,3.5l98.17,176.55a2,2,0,0,0,2.72.78l32.34-18a2,2,0,0,0,.77-2.72Z"/><path class="cls-1" d="M781.46,164.77a4,4,0,0,1,0-3.5L839.4,57.36a2,2,0,0,0-.77-2.72l-32.31-18a2,2,0,0,0-2.72.78L734.55,161.27a4,4,0,0,0,0,3.5L852.19,376.58a3.79,3.79,0,0,0,3,1.75h43a1.08,1.08,0,0,0,1-1.75Z"/><path class="cls-1" d="M1022.82,405.55a2,2,0,0,0-2-2H977.9a2,2,0,0,0-2,2v65.5a9.23,9.23,0,0,1-1,3.75L876.55,651.27a4,4,0,0,0,0,3.5l98.17,176.55a2,2,0,0,0,2.72.78l32.34-18a2,2,0,0,0,.77-2.72L923.46,654.77a4,4,0,0,1,0-3.5l98.39-176.47a9.07,9.07,0,0,0,1-3.75Z"/><path class="cls-1" d="M781.46,654.77a4,4,0,0,1,0-3.5l117.68-211a1.08,1.08,0,0,0-1-1.75H855.17a3.79,3.79,0,0,0-3,1.75l-117.64,211a4,4,0,0,0,0,3.5L852.19,866.58a3.79,3.79,0,0,0,3,1.75h43a1.08,1.08,0,0,0,1-1.75Z"/><path class="cls-1" d="M1022.82,895.55a2,2,0,0,0-2-2H977.9a2,2,0,0,0-2,2v65.5a9.23,9.23,0,0,1-1,3.75l-98.38,176.47a4,4,0,0,0,0,3.5l98.17,176.55a2,2,0,0,0,2.72.78l32.34-18a2,2,0,0,0,.77-2.72l-87.09-156.63a4,4,0,0,1,0-3.5l98.39-176.47a9.07,9.07,0,0,0,1-3.75Z"/><path class="cls-1" d="M899.14,930.24a1.08,1.08,0,0,0-1-1.75H855.17a3.79,3.79,0,0,0-3,1.75l-117.64,211a4,4,0,0,0,0,3.5l98.17,176.55a2,2,0,0,0,2.72.78l32.34-18a2,2,0,0,0,.77-2.72l-87.09-156.63a4,4,0,0,1,0-3.5Z"/><path class="cls-1" d="M597.24,1017.56a2,2,0,0,0-2,2v201a3.89,3.89,0,0,1-1.72,3l-79.06,47.11a3.73,3.73,0,0,1-3.44,0L432,1223.58a3.89,3.89,0,0,1-1.72-3v-201a2,2,0,0,0-2-2h-37a2,2,0,0,0-2,2v226a3.89,3.89,0,0,0,1.72,3L511,1320.48a3.65,3.65,0,0,0,3.43,0l120.07-71.9a3.91,3.91,0,0,0,1.71-3v-226a2,2,0,0,0-2-2Z"/><path class="cls-1" d="M514.46,664.58a3.71,3.71,0,0,0-3.43,0L391,736.48a3.92,3.92,0,0,0-1.72,3v205a2,2,0,0,0,2,2h37a2,2,0,0,0,2-2v-180a3.89,3.89,0,0,1,1.72-3L511,714.38a3.73,3.73,0,0,1,3.44,0l79.06,47.11a3.89,3.89,0,0,1,1.72,3v180a2,2,0,0,0,2,2h37a2,2,0,0,0,2-2v-205a3.94,3.94,0,0,0-1.71-3Z"/></g><g id="Circles"><circle class="cls-2" cx="389.25" cy="786.94" r="7.5"/><circle class="cls-2" cx="430.23" cy="837.13" r="7.5"/><circle class="cls-2" cx="451.26" cy="749.9" r="7.5"/><circle class="cls-2" cx="472.12" cy="688.32" r="7.5"/><circle class="cls-2" cx="430.23" cy="911.13" r="7.5"/><circle class="cls-2" cx="636.12" cy="786.94" r="7.5"/><circle class="cls-2" cx="595.14" cy="837.13" r="7.5"/><circle class="cls-2" cx="574.11" cy="749.9" r="7.5"/><circle class="cls-2" cx="553.25" cy="688.32" r="7.5"/><circle class="cls-2" cx="595.14" cy="911.13" r="7.5"/><circle class="cls-2" cx="389.25" cy="1197.51" r="7.5"/><circle class="cls-2" cx="430.23" cy="1126.32" r="7.5"/><circle class="cls-2" cx="451.26" cy="1235.55" r="7.5"/><circle class="cls-2" cx="472.12" cy="1297.13" r="7.5"/><circle class="cls-2" cx="636.12" cy="1197.51" r="7.5"/><circle class="cls-2" cx="389.25" cy="1052.51" r="7.5"/><circle class="cls-2" cx="636.12" cy="1052.51" r="7.5"/><circle class="cls-2" cx="595.14" cy="1126.32" r="7.5"/><circle class="cls-2" cx="574.11" cy="1235.55" r="7.5"/><circle class="cls-2" cx="553.25" cy="1297.13" r="7.5"/><circle class="cls-2" cx="852.06" cy="1271.72" r="7.5"/><circle class="cls-2" cx="781.41" cy="1229.04" r="7.5"/><circle class="cls-2" cx="792.48" cy="1164.63" r="7.5"/><circle class="cls-2" cx="757.68" cy="1100.05" r="7.5"/><circle class="cls-2" cx="816.5" cy="1078.33" r="7.5"/><circle class="cls-2" cx="817.3" cy="992.94" r="7.5"/><circle class="cls-2" cx="876.28" cy="971.32" r="7.5"/><circle class="cls-2" cx="852.25" cy="782.08" r="7.5"/><circle class="cls-2" cx="841.09" cy="846.41" r="7.5"/><circle class="cls-2" cx="781.6" cy="739.4" r="7.5"/><circle class="cls-2" cx="792.67" cy="674.99" r="7.5"/><circle class="cls-2" cx="757.87" cy="610.41" r="7.5"/><circle class="cls-2" cx="816.69" cy="588.69" r="7.5"/><circle class="cls-2" cx="817.49" cy="503.3" r="7.5"/><circle class="cls-2" cx="876.47" cy="481.68" r="7.5"/><circle class="cls-2" cx="781.7" cy="78.13" r="7.5"/><circle class="cls-2" cx="792.77" cy="142.55" r="7.5"/><circle class="cls-2" cx="757.97" cy="207.12" r="7.5"/><circle class="cls-2" cx="816.79" cy="228.84" r="7.5"/><circle class="cls-2" cx="817.59" cy="314.23" r="7.5"/><circle class="cls-2" cx="876.57" cy="335.86" r="7.5"/><circle class="cls-2" cx="693.24" cy="491.25" r="7.5"/><circle class="cls-2" cx="682.24" cy="427.26" r="7.5"/><circle class="cls-2" cx="622.7" cy="45.13" r="7.5"/><circle class="cls-2" cx="633.77" cy="109.55" r="7.5"/><circle class="cls-2" cx="598.97" cy="174.12" r="7.5"/><circle class="cls-2" cx="657.79" cy="195.84" r="7.5"/><circle class="cls-2" cx="658.59" cy="281.23" r="7.5"/><circle class="cls-2" cx="717.57" cy="302.86" r="7.5"/><circle class="cls-2" cx="337.48" cy="491.25" r="7.5"/><circle class="cls-2" cx="408.28" cy="491.74" r="7.5"/><circle class="cls-2" cx="456.13" cy="533.95" r="7.5"/><circle class="cls-2" cx="623.08" cy="491.74" r="7.5"/><circle class="cls-2" cx="575.23" cy="533.95" r="7.5"/><circle class="cls-2" cx="348.48" cy="427.26" r="7.5"/><circle class="cls-2" cx="431.75" cy="174.12" r="7.5"/><circle class="cls-2" cx="372.92" cy="195.84" r="7.5"/><circle class="cls-2" cx="372.13" cy="281.23" r="7.5"/><circle class="cls-2" cx="313.15" cy="302.86" r="7.5"/><circle class="cls-2" cx="899.2" cy="120.78" r="7.5"/><circle class="cls-2" cx="958.26" cy="99.24" r="7.5"/><circle class="cls-2" cx="934.56" cy="185.16" r="7.5"/><circle class="cls-2" cx="923.42" cy="248.65" r="7.5"/><circle class="cls-2" cx="994.34" cy="292.17" r="7.5"/><circle class="cls-2" cx="993.71" cy="1014.06" r="7.5"/><circle class="cls-2" cx="923.06" cy="1056.74" r="7.5"/><circle class="cls-2" cx="934.13" cy="1121.15" r="7.5"/><circle class="cls-2" cx="899.33" cy="1185.73" r="7.5"/><circle class="cls-2" cx="958.16" cy="1207.45" r="7.5"/><circle class="cls-2" cx="958.95" cy="1292.83" r="7.5"/><circle class="cls-2" cx="975.91" cy="927.04" r="7.5"/><circle class="cls-2" cx="993.92" cy="524.48" r="7.5"/><circle class="cls-2" cx="923.27" cy="567.16" r="7.5"/><circle class="cls-2" cx="934.34" cy="631.57" r="7.5"/><circle class="cls-2" cx="899.54" cy="696.15" r="7.5"/><circle class="cls-2" cx="958.36" cy="717.87" r="7.5"/><circle class="cls-2" cx="959.16" cy="803.26" r="7.5"/><circle class="cls-2" cx="976.12" cy="437.46" r="7.5"/><circle class="cls-2" cx="468.28" cy="331.74" r="7.5"/><circle class="cls-2" cx="516.13" cy="373.95" r="7.5"/><circle class="cls-2" cx="172.34" cy="1271.72" r="7.5"/><circle class="cls-2" cx="242.99" cy="1229.04" r="7.5"/><circle class="cls-2" cx="231.92" cy="1164.63" r="7.5"/><circle class="cls-2" cx="266.72" cy="1100.05" r="7.5"/><circle class="cls-2" cx="207.9" cy="1078.33" r="7.5"/><circle class="cls-2" cx="207.1" cy="992.94" r="7.5"/><circle class="cls-2" cx="148.12" cy="971.32" r="7.5"/><circle class="cls-2" cx="172.15" cy="782.08" r="7.5"/><circle class="cls-2" cx="183.31" cy="846.41" r="7.5"/><circle class="cls-2" cx="242.8" cy="739.4" r="7.5"/><circle class="cls-2" cx="231.73" cy="674.99" r="7.5"/><circle class="cls-2" cx="266.53" cy="610.41" r="7.5"/><circle class="cls-2" cx="207.71" cy="588.69" r="7.5"/><circle class="cls-2" cx="206.91" cy="503.3" r="7.5"/><circle class="cls-2" cx="147.93" cy="481.68" r="7.5"/><circle class="cls-2" cx="242.7" cy="78.13" r="7.5"/><circle class="cls-2" cx="231.63" cy="142.55" r="7.5"/><circle class="cls-2" cx="266.43" cy="207.12" r="7.5"/><circle class="cls-2" cx="207.61" cy="228.84" r="7.5"/><circle class="cls-2" cx="206.81" cy="314.23" r="7.5"/><circle class="cls-2" cx="147.83" cy="335.86" r="7.5"/><circle class="cls-2" cx="125.2" cy="120.78" r="7.5"/><circle class="cls-2" cx="66.14" cy="99.24" r="7.5"/><circle class="cls-2" cx="89.84" cy="185.16" r="7.5"/><circle class="cls-2" cx="100.98" cy="248.65" r="7.5"/><circle class="cls-2" cx="30.06" cy="292.17" r="7.5"/><circle class="cls-2" cx="30.69" cy="1014.06" r="7.5"/><circle class="cls-2" cx="101.34" cy="1056.74" r="7.5"/><circle class="cls-2" cx="90.27" cy="1121.15" r="7.5"/><circle class="cls-2" cx="125.07" cy="1185.73" r="7.5"/><circle class="cls-2" cx="66.24" cy="1207.45" r="7.5"/><circle class="cls-2" cx="65.45" cy="1292.83" r="7.5"/><circle class="cls-2" cx="48.49" cy="927.04" r="7.5"/><circle class="cls-2" cx="30.48" cy="524.48" r="7.5"/><circle class="cls-2" cx="101.13" cy="567.16" r="7.5"/><circle class="cls-2" cx="90.06" cy="631.57" r="7.5"/><circle class="cls-2" cx="124.86" cy="696.15" r="7.5"/><circle class="cls-2" cx="66.04" cy="717.87" r="7.5"/><circle class="cls-2" cx="65.24" cy="803.26" r="7.5"/><circle class="cls-2" cx="48.28" cy="437.46" r="7.5"/></g></svg>